<svg height="1080" viewBox="0 0 1080 1080" width="1080" xmlns="http://www.w3.org/2000/svg"><g fill="none" fill-rule="evenodd"><g transform="matrix(.5 -.8660254 .8660254 .5 135.713848 639.619799)"><path d="m307 0c169.551418 0 307 137.448582 307 307 0 21.594473-2.229578 42.6682-6.471092 63.003541h-601.05781552c-4.24151468-20.335341-6.47109248-41.409068-6.47109248-63.003541 0-169.551418 137.448582-307 307-307z" fill="#acc1ff"/><path d="m307.259619 66.4496732c135.585906 0 245.5 109.9140938 245.5 245.4999998 0 20.020291-2.396432 39.480865-6.91809 58.110518h-477.1638199c-4.5216585-18.629653-6.9180902-38.090227-6.9180902-58.110518 0-135.585906 109.9140941-245.4999998 245.5000001-245.4999998z" fill="#6b90ff"/></g><path d="m857.490553 304.301843v470.698157c0 27.614237-22.385763 50-50 50h-9.653291l-119.168631-.189215-119.168631-.189216-56.5.378431 307.839879-533.198091c6.903523-11.957336 22.193271-16.054262 34.150607-9.15074 7.735065 4.46581 12.500067 12.719007 12.500067 21.650674z" fill="#6b90ff"/></g></svg>