<svg height="1024" viewBox="0 0 1024 1024" width="1024" xmlns="http://www.w3.org/2000/svg"><path d="m775.68 453.5v255.44c0 54.61-118.054 98.88-263.68 98.88s-263.68-44.27-263.68-98.88v-255.44m412-200.852c63.22 13.12 115.358 38.445 115.358 85.673 0 86.522-164.8 98.7-263.68 98.7s-263.68-12.164-263.68-98.7c0-48.608 52.147-73.761 115.375-86.466" fill="none" stroke="#17a8ff" stroke-linecap="round" stroke-width="44"/><path d="m512 202.18c42.1 0 76.22 30.436 76.22 67.98s-34.12 67.98-76.22 67.98-76.22-30.436-76.22-67.98 34.125-67.98 76.22-67.98z" fill="#17a8ff" fill-rule="evenodd"/></svg>