<svg viewBox="0 0 500 500" xmlns="http://www.w3.org/2000/svg"><path d="m248.63 114.31c-51.46 17.37-165-52.8-182.25 32.26-14.18 69.81 57.18 139.86 150 163.69 65.89 16.92 155.29-12.14 170.54-94.21 9.54-51.33-29-109.94-59.43-121.62-38.03-14.58-45.3 8.57-78.86 19.88z" fill="#407bff"/><path d="m248.63 114.31c-51.46 17.37-165-52.8-182.25 32.26-14.18 69.81 57.18 139.86 150 163.69 65.89 16.92 155.29-12.14 170.54-94.21 9.54-51.33-29-109.94-59.43-121.62-38.03-14.58-45.3 8.57-78.86 19.88z" fill="#fff" opacity=".9"/><ellipse cx="250" cy="416.24" fill="#f5f5f5" rx="193.89" ry="11.32"/><path d="m186.55 128.28s0 0 0 0a33.71 33.71 0 0 0 -.45-5.56 35 35 0 0 0 -34.17-29.3h-.3a34.83 34.83 0 0 0 -28.26 14.5c-.53.73-1 1.48-1.48 2.23a.86.86 0 0 0 -.1.16 34.66 34.66 0 0 0 -5 18v.07a34.88 34.88 0 0 0 63.21 20.25c.52-.73 1-1.47 1.47-2.23a.86.86 0 0 0 .1-.16 34.45 34.45 0 0 0 4.98-17.96zm-68.27-.79a33 33 0 0 1 4.63-16.2h10.91a55.08 55.08 0 0 0 -2.59 16.2zm17.07-16.2h15.56v16.2h-18.18a53.38 53.38 0 0 1 2.62-16.2zm17.06-1.5v-14.92a12.2 12.2 0 0 1 6 2.23c3.71 2.54 6.82 7 9 12.69zm15.54 1.5a51.81 51.81 0 0 1 2.4 11.55c.15 1.56.22 3.11.24 4.65h-18.18v-16.2zm-19.24-16a10.57 10.57 0 0 1 2.2-.38v14.91h-15c2.8-7.54 7.34-13.02 12.8-14.56zm2.2 33.73v16.2h-15.53a51.25 51.25 0 0 1 -2.38-11.58q-.21-2.34-.24-4.65zm0 17.7v14.92a12.23 12.23 0 0 1 -6-2.23c-3.7-2.54-6.81-7-9-12.69zm3.7 14.53a10.45 10.45 0 0 1 -2.2.38v-14.94h15c-2.8 7.51-7.34 13-12.8 14.53zm-2.2-16v-16.25h18.18a53.08 53.08 0 0 1 -2.62 16.2zm19.68-16.25h13a33.12 33.12 0 0 1 -4.63 16.2h-10.96a55.08 55.08 0 0 0 2.59-16.2zm13-1.5h-13c0-1.58-.1-3.18-.25-4.79a52.89 52.89 0 0 0 -2.29-11.41h10.89a33.41 33.41 0 0 1 4.19 11.6 35.91 35.91 0 0 1 .42 4.59zm-13.87-26.33a33.58 33.58 0 0 1 8.32 8.63h-10.54c-2.24-6.19-5.61-11.09-9.74-13.93l-.32-.21a33.44 33.44 0 0 1 12.24 5.5zm-26.87-5.49c-4.21 2.77-7.67 7.81-10 14.12h-10.5l.73-1.07a33.19 33.19 0 0 1 19.73-13.06zm-26 33.32h12.95c0 1.58.1 3.18.25 4.79a53.5 53.5 0 0 0 2.29 11.41h-10.95a33.21 33.21 0 0 1 -4.19-11.6 32.5 32.5 0 0 1 -.42-4.6zm5.54 17.7h10.46c2.24 6.19 5.61 11.09 9.74 13.93l.33.21a33.62 33.62 0 0 1 -20.53-14.14zm35.11 14.11c4.2-2.76 7.66-7.81 10-14.12h10.48c-.24.36-.48.72-.73 1.07a33.15 33.15 0 0 1 -19.75 13.05z" fill="#407bff"/><path d="m186.55 128.28s0 0 0 0a33.71 33.71 0 0 0 -.45-5.56 35 35 0 0 0 -34.17-29.3h-.3a34.83 34.83 0 0 0 -28.26 14.5c-.53.73-1 1.48-1.48 2.23a.86.86 0 0 0 -.1.16 34.66 34.66 0 0 0 -5 18v.07a34.88 34.88 0 0 0 63.21 20.25c.52-.73 1-1.47 1.47-2.23a.86.86 0 0 0 .1-.16 34.45 34.45 0 0 0 4.98-17.96zm-68.27-.79a33 33 0 0 1 4.63-16.2h10.91a55.08 55.08 0 0 0 -2.59 16.2zm17.07-16.2h15.56v16.2h-18.18a53.38 53.38 0 0 1 2.62-16.2zm17.06-1.5v-14.92a12.2 12.2 0 0 1 6 2.23c3.71 2.54 6.82 7 9 12.69zm15.54 1.5a51.81 51.81 0 0 1 2.4 11.55c.15 1.56.22 3.11.24 4.65h-18.18v-16.2zm-19.24-16a10.57 10.57 0 0 1 2.2-.38v14.91h-15c2.8-7.54 7.34-13.02 12.8-14.56zm2.2 33.73v16.2h-15.53a51.25 51.25 0 0 1 -2.38-11.58q-.21-2.34-.24-4.65zm0 17.7v14.92a12.23 12.23 0 0 1 -6-2.23c-3.7-2.54-6.81-7-9-12.69zm3.7 14.53a10.45 10.45 0 0 1 -2.2.38v-14.94h15c-2.8 7.51-7.34 13-12.8 14.53zm-2.2-16v-16.25h18.18a53.08 53.08 0 0 1 -2.62 16.2zm19.68-16.25h13a33.12 33.12 0 0 1 -4.63 16.2h-10.96a55.08 55.08 0 0 0 2.59-16.2zm13-1.5h-13c0-1.58-.1-3.18-.25-4.79a52.89 52.89 0 0 0 -2.29-11.41h10.89a33.41 33.41 0 0 1 4.19 11.6 35.91 35.91 0 0 1 .42 4.59zm-13.87-26.33a33.58 33.58 0 0 1 8.32 8.63h-10.54c-2.24-6.19-5.61-11.09-9.74-13.93l-.32-.21a33.44 33.44 0 0 1 12.24 5.5zm-26.87-5.49c-4.21 2.77-7.67 7.81-10 14.12h-10.5l.73-1.07a33.19 33.19 0 0 1 19.73-13.06zm-26 33.32h12.95c0 1.58.1 3.18.25 4.79a53.5 53.5 0 0 0 2.29 11.41h-10.95a33.21 33.21 0 0 1 -4.19-11.6 32.5 32.5 0 0 1 -.42-4.6zm5.54 17.7h10.46c2.24 6.19 5.61 11.09 9.74 13.93l.33.21a33.62 33.62 0 0 1 -20.53-14.14zm35.11 14.11c4.2-2.76 7.66-7.81 10-14.12h10.48c-.24.36-.48.72-.73 1.07a33.15 33.15 0 0 1 -19.75 13.05z" fill="#fafafa" opacity=".8"/><path d="m99.89 144.9h314.4v76.18h-314.4z" fill="#407bff"/><path d="m99.89 144.9h314.4v76.18h-314.4z" fill="#fafafa" opacity=".6"/><path d="m92.8 151.99h314.4v76.18h-314.4z" fill="#407bff"/><path d="m92.8 151.99h314.4v76.18h-314.4z" opacity=".3"/><path d="m85.71 159.08h314.4v76.18h-314.4z" fill="#407bff"/><path d="m85.71 159.08h314.4v76.18h-314.4z" fill="#fafafa" opacity=".1"/><path d="m219.83 54.97h46.18v284.4h-46.18z" fill="#407bff" transform="matrix(0 1 -1 0 440.08 -45.75)"/><path d="m219.83 54.97h46.18v284.4h-46.18z" fill="#fafafa" opacity=".9" transform="matrix(0 1 -1 0 440.08 -45.75)"/><path d="m315.01 196.33h46.18v1.67h-46.18z" fill="#407bff" transform="matrix(0 -1 1 0 140.94 535.27)"/><path d="m315.01 196.33h46.18v1.67h-46.18z" fill="#fafafa" opacity=".6" transform="matrix(0 -1 1 0 140.94 535.27)"/><path d="m91.91 196.33h33.44v1.67h-33.44z" fill="#407bff" transform="matrix(0 -1 1 0 -88.53 305.8)"/><path d="m91.91 196.33h33.44v1.67h-33.44z" fill="#fafafa" opacity=".6" transform="matrix(0 -1 1 0 -88.53 305.8)"/><path d="m360.43 203a7.38 7.38 0 1 1 5.22-12.6 7.38 7.38 0 0 1 -5.22 12.6zm0-12.75a5.38 5.38 0 1 0 3.8 1.57 5.33 5.33 0 0 0 -3.8-1.62z" fill="#407bff"/><path d="m370 206.14a1 1 0 0 1 -.71-.3l-5.05-5.05a1 1 0 1 1 1.41-1.41l5.05 5.05a1 1 0 0 1 0 1.41 1 1 0 0 1 -.7.3z" fill="#407bff"/><g fill="#fafafa" opacity=".6"><path d="m360.43 203a7.38 7.38 0 1 1 5.22-12.6 7.38 7.38 0 0 1 -5.22 12.6zm0-12.75a5.38 5.38 0 1 0 3.8 1.57 5.33 5.33 0 0 0 -3.8-1.62z"/><path d="m370 206.14a1 1 0 0 1 -.71-.3l-5.05-5.05a1 1 0 1 1 1.41-1.41l5.05 5.05a1 1 0 0 1 0 1.41 1 1 0 0 1 -.7.3z"/></g><g fill="#407bff"><path d="m261.15 98.85h31.44v.78h-31.44z"/><path d="m261.15 102.16h31.44v.78h-31.44z"/><path d="m261.15 105.48h31.44v.78h-31.44z"/><path d="m261.15 108.79h31.44v.78h-31.44z"/><path d="m261.15 112.1h31.44v.78h-31.44z"/><path d="m261.15 115.42h20.5v.78h-20.5z"/></g><g fill="#fafafa" opacity=".5"><path d="m261.15 98.85h31.44v.78h-31.44z"/><path d="m261.15 102.16h31.44v.78h-31.44z"/><path d="m261.15 105.48h31.44v.78h-31.44z"/><path d="m261.15 108.79h31.44v.78h-31.44z"/><path d="m261.15 112.1h31.44v.78h-31.44z"/><path d="m261.15 115.42h20.5v.78h-20.5z"/></g><path d="m69.85 241.84h33.5v.5h-33.5z" fill="#407bff"/><path d="m69.85 243.96h33.5v.5h-33.5z" fill="#407bff"/><path d="m69.85 246.08h33.5v.5h-33.5z" fill="#407bff"/><path d="m69.85 248.2h33.5v.5h-33.5z" fill="#407bff"/><path d="m69.85 250.32h33.5v.5h-33.5z" fill="#407bff"/><path d="m69.85 252.45h21.06v.5h-21.06z" fill="#407bff"/><g fill="#fafafa" opacity=".4"><path d="m69.85 241.84h33.5v.5h-33.5z"/><path d="m69.85 243.96h33.5v.5h-33.5z"/><path d="m69.85 246.08h33.5v.5h-33.5z"/><path d="m69.85 248.2h33.5v.5h-33.5z"/><path d="m69.85 250.32h33.5v.5h-33.5z"/><path d="m69.85 252.45h21.06v.5h-21.06z"/></g><path d="m213.45 103.76a6.32 6.32 0 0 0 -6.32 6.32v20.85a6.32 6.32 0 0 0 6.32 6.32 6.32 6.32 0 0 0 6.32-6.32v-20.85a6.32 6.32 0 0 0 -6.32-6.32z" fill="#407bff"/><path d="m213.45 103.76a6.32 6.32 0 0 0 -6.32 6.32v20.85a6.32 6.32 0 0 0 6.32 6.32 6.32 6.32 0 0 0 6.32-6.32v-20.85a6.32 6.32 0 0 0 -6.32-6.32z" fill="#fafafa" opacity=".2"/><path d="m229.29 91.33a6.32 6.32 0 0 0 -6.29 6.32v33.28a6.32 6.32 0 0 0 6.32 6.32 6.32 6.32 0 0 0 6.32-6.32v-33.28a6.32 6.32 0 0 0 -6.35-6.32z" fill="#407bff"/><path d="m229.29 91.33a6.32 6.32 0 0 0 -6.29 6.32v33.28a6.32 6.32 0 0 0 6.32 6.32 6.32 6.32 0 0 0 6.32-6.32v-33.28a6.32 6.32 0 0 0 -6.35-6.32z" opacity=".3"/><path d="m245.12 116.19a6.32 6.32 0 0 0 -6.32 6.32v8.42a6.32 6.32 0 0 0 6.32 6.32 6.32 6.32 0 0 0 6.33-6.32v-8.42a6.32 6.32 0 0 0 -6.33-6.32z" fill="#407bff"/><path d="m245.12 116.19a6.32 6.32 0 0 0 -6.32 6.32v8.42a6.32 6.32 0 0 0 6.32 6.32 6.32 6.32 0 0 0 6.33-6.32v-8.42a6.32 6.32 0 0 0 -6.33-6.32z" fill="#fafafa" opacity=".6"/><path d="m378.61 259.13h25.55l-43.62-45.24z" fill="#407bff"/><path d="m378.61 259.13h25.55l-43.62-45.24z" opacity=".1"/><path d="m354.05 235.25 6.49-21.36 3.68 21.36z" fill="#407bff"/><path d="m360.54 213.89v63.3l4.52-4.51 13.55-13.55z" fill="#407bff"/><path d="m360.54 213.89v63.3l4.52-4.51 13.55-13.55z" fill="#fafafa" opacity=".3"/><path d="m405.72 78.11h-56a10.76 10.76 0 0 0 -10.72 10.71v28.92a10.76 10.76 0 0 0 10.71 10.71h41.09l-.3 10.11 10.37-10.11h4.83a10.76 10.76 0 0 0 10.72-10.71v-28.92a10.76 10.76 0 0 0 -10.7-10.71zm-57.26 12.32a3 3 0 0 1 3-3h12.89a3 3 0 0 1 0 6h-12.9a3 3 0 0 1 -2.99-3zm54.08 28h-22.28a3 3 0 1 1 0-5.91h22.28a3 3 0 1 1 0 5.91zm0-12.51h-48.09a3 3 0 1 1 0-5.91h48.09a3 3 0 1 1 0 5.91zm0-12.51h-28.47a3 3 0 0 1 0-6h28.47a3 3 0 0 1 0 6z" fill="#407bff"/><path d="m318.14 169.78a53.7 53.7 0 0 0 -10.75-17.78h-79.51a53.7 53.7 0 0 0 -10.75 17.78l11 54.76a53.73 53.73 0 0 0 90-54.76z" fill="#407bff"/><path d="m318.14 169.78a53.7 53.7 0 0 0 -10.75-17.78h-79.51a53.7 53.7 0 0 0 -10.75 17.78l11 54.76a53.73 53.73 0 0 0 90-54.76z" fill="#fafafa" opacity=".1"/><path d="m321.31 190.61a53.55 53.55 0 0 1 -14.16 33.93h-79a53.81 53.81 0 0 1 -11-54.76h101a53.42 53.42 0 0 1 3.16 20.83z" fill="#407bff"/><path d="m321.31 190.61a53.55 53.55 0 0 1 -14.16 33.93h-79a53.81 53.81 0 0 1 -11-54.76h101a53.42 53.42 0 0 1 3.16 20.83z" fill="#fafafa" opacity=".9"/><path d="m321.31 190.61a53.61 53.61 0 1 1 -3.17-20.83 53.55 53.55 0 0 1 3.17 20.83z" fill="#fff" opacity=".3"/><path d="m297.92 143.76-77.26 70.46q-.58-1.07-1.14-2.16a53 53 0 0 1 -4.87-15l66.73-60.86a53.42 53.42 0 0 1 16.54 7.56z" fill="#fff" opacity=".4"/><path d="m318.59 171.07-72.59 66.24a53.68 53.68 0 0 1 -19.48-14.64l79.32-72.34a53.75 53.75 0 0 1 12.75 20.74z" fill="#fff" opacity=".4"/><path d="m321.29 157.15a62 62 0 1 0 -22.66 84.64 62 62 0 0 0 22.66-84.64zm-96 55.44a48.89 48.89 0 1 1 66.79 17.89 48.88 48.88 0 0 1 -66.78-17.89z" fill="#407bff"/><path d="m321.29 157.15a62 62 0 1 0 -22.66 84.64 62 62 0 0 0 22.66-84.64zm-96 55.44a48.89 48.89 0 1 1 66.79 17.89 48.88 48.88 0 0 1 -66.78-17.89z" opacity=".1"/><path d="m125.06 251.89 7.66 1.78-6.35 4.74s-4.55-2.06-4.76-5.29z" fill="#e4897b"/><path d="m136.82 258.77-5.52 3.68-4.93-4.04 6.35-4.73z" fill="#e4897b"/><path d="m223.47 220.78c-8.14 6-16.49 11.7-24.88 17.27s-16.89 11-25.43 16.33-17.16 10.55-25.81 15.62c-4.32 2.58-8.68 5.08-13 7.62a25.32 25.32 0 0 1 -6.94 3.07 21.75 21.75 0 0 1 -4 .67 17 17 0 0 1 -4.49-.23 8.2 8.2 0 0 1 -6.45-9.65 7 7 0 0 1 .28-1 16.56 16.56 0 0 1 2-4 21.22 21.22 0 0 1 2.56-3.1 25.52 25.52 0 0 1 6.13-4.48c4.37-2.49 8.71-5 13.11-7.47 8.76-4.95 17.6-9.77 26.46-14.53s17.83-9.37 26.85-13.87 18.11-8.88 27.39-12.92a6.21 6.21 0 0 1 6.18 10.69z" fill="#407bff"/><path d="m223.47 220.78c-8.14 6-16.49 11.7-24.88 17.27s-16.89 11-25.43 16.33-17.16 10.55-25.81 15.62c-4.32 2.58-8.68 5.08-13 7.62a25.32 25.32 0 0 1 -6.94 3.07 21.75 21.75 0 0 1 -4 .67 17 17 0 0 1 -4.49-.23 8.2 8.2 0 0 1 -6.45-9.65 7 7 0 0 1 .28-1 16.56 16.56 0 0 1 2-4 21.22 21.22 0 0 1 2.56-3.1 25.52 25.52 0 0 1 6.13-4.48c4.37-2.49 8.71-5 13.11-7.47 8.76-4.95 17.6-9.77 26.46-14.53s17.83-9.37 26.85-13.87 18.11-8.88 27.39-12.92a6.21 6.21 0 0 1 6.18 10.69z" opacity=".1"/><path d="m136.16 204.52c-.5.81-1.07 1.79-1.61 2.71s-1.07 1.88-1.57 2.85c-1 1.91-2 3.85-3 5.82s-1.81 4-2.63 6c-.4 1-.82 2-1.19 3l-.56 1.53c-.11.29-.13.41-.2.62s-.1.41-.16.61a31.13 31.13 0 0 0 -.59 6c-.05 2.15 0 4.34.12 6.55s.24 4.43.44 6.65.4 4.48.61 6.68l-3.86.79c-.68-2.23-1.21-4.45-1.74-6.7s-.93-4.51-1.32-6.81-.65-4.61-.82-7a34.78 34.78 0 0 1 .19-7.51c.06-.35.11-.68.2-1s.18-.77.26-1l.49-1.7c.32-1.13.69-2.25 1.07-3.36.77-2.23 1.61-4.42 2.55-6.58s1.94-4.27 3-6.35c.55-1 1.13-2.07 1.72-3.1s1.18-2 1.92-3.09z" fill="#e4897b"/><path d="m131.89 411a9.4 9.4 0 0 1 -2-.28.17.17 0 0 1 -.14-.14.19.19 0 0 1 .08-.19c.27-.18 2.63-1.7 3.54-1.29a.62.62 0 0 1 .36.52 1 1 0 0 1 -.3 1 2.26 2.26 0 0 1 -1.54.38zm-1.53-.54c1.36.27 2.38.22 2.77-.14a.68.68 0 0 0 .19-.65.27.27 0 0 0 -.16-.24c-.47-.21-1.84.45-2.8 1.03z" fill="#407bff"/><path d="m129.88 410.73a.16.16 0 0 1 -.09 0 .17.17 0 0 1 -.09-.16c0-.09 0-2.33.85-3.08a1 1 0 0 1 .78-.25.64.64 0 0 1 .62.52c.18.87-1.24 2.55-2 3a.16.16 0 0 1 -.07-.03zm1.33-3.16a.62.62 0 0 0 -.41.16 4.18 4.18 0 0 0 -.72 2.46c.74-.6 1.62-1.86 1.51-2.39 0-.09-.07-.19-.3-.22z" fill="#407bff"/><path d="m167.31 411a12.52 12.52 0 0 1 -2.45-.28.17.17 0 0 1 -.15-.15.19.19 0 0 1 .1-.19c.35-.18 3.45-1.76 4.4-1.24a.59.59 0 0 1 .32.49 1 1 0 0 1 -.34.89 2.9 2.9 0 0 1 -1.88.48zm-1.84-.54c1.73.29 3 .21 3.48-.21a.68.68 0 0 0 .21-.59.23.23 0 0 0 -.12-.2c-.52-.28-2.3.39-3.57 1z" fill="#407bff"/><path d="m164.89 410.73a.13.13 0 0 1 -.1 0 .15.15 0 0 1 -.08-.16c0-.09.19-2.19 1.16-3a1.39 1.39 0 0 1 1-.32c.51.05.65.31.69.52.14.88-1.69 2.56-2.62 3zm1.86-3.16a1 1 0 0 0 -.64.24 4.29 4.29 0 0 0 -1 2.4c.94-.57 2.19-1.89 2.1-2.42 0 0 0-.18-.36-.21z" fill="#407bff"/><path d="m148 174.49c.61 4.67 2 14.14-1.38 17 0 0 1 4.76 9.52 5.31 9.42.61 4.8-4.38 4.8-4.38-5.06-1.56-4.68-5.37-3.55-8.89z" fill="#e4897b"/><path d="m165.47 165a.34.34 0 0 1 -.17-.05.36.36 0 0 1 -.15-.5 3.65 3.65 0 0 1 2.73-2 .37.37 0 0 1 .07.73 3 3 0 0 0 -2.15 1.58.4.4 0 0 1 -.33.24z" fill="#263238"/><path d="m168.16 169.1a16.73 16.73 0 0 0 2.6 3.78 2.7 2.7 0 0 1 -2.19.63z" fill="#de5753"/><path d="m167.5 168.08c.06.63.44 1.1.84 1.06s.7-.57.64-1.2-.44-1.1-.85-1.06-.69.58-.63 1.2z" fill="#263238"/><path d="m168 166.93 1.46-.57s-.7 1.24-1.46.57z" fill="#263238"/><path d="m156.33 410.54h7.79l.52-18.02h-7.79z" fill="#e4897b"/><path d="m120.96 410.54h7.79l2.5-18.02h-7.78z" fill="#e4897b"/><path d="m129.23 409.64h-8.75a.62.62 0 0 0 -.62.53l-1 6.92a1.25 1.25 0 0 0 1.24 1.39c3-.05 4.52-.23 8.37-.23 2.36 0 5.82.24 9.09.24s3.44-3.23 2.08-3.52c-6.1-1.31-7.06-3.12-9.12-4.85a2 2 0 0 0 -1.29-.48z" fill="#263238"/><path d="m164.38 409.64h-8.74a.61.61 0 0 0 -.62.53l-1 6.92a1.26 1.26 0 0 0 1.25 1.39c3-.05 4.52-.23 8.36-.23 2.37 0 7.26.24 10.53.24s3.44-3.23 2.08-3.52c-6.1-1.31-8.5-3.12-10.56-4.85a2 2 0 0 0 -1.3-.48z" fill="#263238"/><path d="m164.63 392.52-.26 9.29h-7.79l.27-9.29z" fill="#ce6f64"/><path d="m123.46 392.52h7.79l-1.29 9.29h-7.79z" fill="#ce6f64"/><path d="m139.48 205.72a39.94 39.94 0 0 1 -5.11 6.42l-.89-.59-9.86-6.55s5.38-12 9.43-12.61c3.87-.62 6.69 3.38 8 7.66.5 1.55-.33 3.65-1.57 5.67z" fill="#407bff"/><path d="m139.48 205.72a39.94 39.94 0 0 1 -5.11 6.42l-.89-.59-9.86-6.55s5.38-12 9.43-12.61c3.87-.62 6.69 3.38 8 7.66.5 1.55-.33 3.65-1.57 5.67z" fill="#fafafa" opacity=".6"/><path d="m139.48 205.72a39.94 39.94 0 0 1 -5.11 6.42l-.89-.59c.44-3.6 1.84-7.17 3.44-8.3.98.1 1.85 1.14 2.56 2.47z" fill="#407bff"/><path d="m139.48 205.72a39.94 39.94 0 0 1 -5.11 6.42l-.89-.59c.44-3.6 1.84-7.17 3.44-8.3.98.1 1.85 1.14 2.56 2.47z" fill="#fafafa" opacity=".4"/><path d="m173.21 211.71c-.47 3-1.08 6.53-1.9 10.72-1 5.36-2.4 11.79-4.17 19.48l-31.55-2c1.36-12.81 1.89-20.73-2.54-47.48a92.82 92.82 0 0 1 13.52-.89 100.56 100.56 0 0 1 14.32.93c6.12 1 13 2.84 13 2.84s1.76.69-.68 16.4z" fill="#407bff"/><path d="m173.21 211.71c-.47 3-1.08 6.53-1.9 10.72-1 5.36-2.4 11.79-4.17 19.48l-31.55-2c1.36-12.81 1.89-20.73-2.54-47.48a92.82 92.82 0 0 1 13.52-.89 100.56 100.56 0 0 1 14.32.93c6.12 1 13 2.84 13 2.84s1.76.69-.68 16.4z" fill="#fafafa" opacity=".6"/><path d="m173.21 211.71c-.47 3-1.08 6.53-1.9 10.72a77.48 77.48 0 0 1 -4.31-11.43h5.86z" fill="#407bff"/><path d="m173.21 211.71c-.47 3-1.08 6.53-1.9 10.72a77.48 77.48 0 0 1 -4.31-11.43h5.86z" fill="#fafafa" opacity=".4"/><path d="m146.28 167.92c1.19 7.63 1.54 10.89 5.79 14.46 6.39 5.38 15.5 2.24 16.61-5.6 1-7.05-1.12-18.35-8.93-20.69a10.53 10.53 0 0 0 -13.47 11.83z" fill="#e4897b"/><path d="m158.8 241.37s-.5 13.89-1.7 31.41c-1 14.7-2.51 31.94-4.62 45.68l-.06.38c-3.79 24.32-20.58 81.16-20.58 81.16h-10.62s8.75-54.9 10.67-79c4.87-60.87-7.33-67.76 3.7-81.18z" fill="#407bff"/><path d="m158.8 241.37s-.5 13.89-1.7 31.41c-1 14.7-2.51 31.94-4.62 45.68l-.06.38c-3.79 24.32-20.58 81.16-20.58 81.16h-10.62s8.75-54.9 10.67-79c4.87-60.87-7.33-67.76 3.7-81.18z" opacity=".3"/><path d="m157.1 272.78c-1 14.7-2.51 31.94-4.62 45.68-3.59-17.85-9.49-43.92-1.57-61 1.89 4.85 4.09 10.33 6.19 15.32z" fill="#407bff"/><path d="m157.1 272.78c-1 14.7-2.51 31.94-4.62 45.68-3.59-17.85-9.49-43.92-1.57-61 1.89 4.85 4.09 10.33 6.19 15.32z" opacity=".4"/><path d="m167.14 241.92s9 53.34 8.46 77.08c-.53 24.7-9.58 81-9.58 81h-10.52s1.66-54.87.73-79.12c-1-26.44-12.2-80.47-12.2-80.47z" fill="#407bff"/><path d="m167.14 241.92s9 53.34 8.46 77.08c-.53 24.7-9.58 81-9.58 81h-10.52s1.66-54.87.73-79.12c-1-26.44-12.2-80.47-12.2-80.47z" opacity=".3"/><path d="m153.7 400.5h14.11l1.1-4.73-15.71.11z" fill="#263238"/><path d="m119.68 400.5h14.11l1.1-4.73-15.11.11z" fill="#263238"/><path d="m135.23 238-1.6 2.74c-.13.21.12.45.48.47l33.09 2.15c.28 0 .53-.1.56-.28l.47-2.81c0-.19-.21-.37-.52-.39l-32-2.08a.61.61 0 0 0 -.48.2z" fill="#263238"/><path d="m139.29 241.84-.85-.06c-.17 0-.3-.11-.28-.21l.64-3.65c0-.1.17-.18.34-.17l.86.05c.17 0 .29.11.28.22l-.64 3.64c-.02.11-.18.19-.35.18z" fill="#407bff"/><path d="m139.29 241.84-.85-.06c-.17 0-.3-.11-.28-.21l.64-3.65c0-.1.17-.18.34-.17l.86.05c.17 0 .29.11.28.22l-.64 3.64c-.02.11-.18.19-.35.18z" opacity=".3"/><path d="m160 243.18-.85-.05c-.17 0-.3-.11-.28-.22l.64-3.64c0-.11.17-.18.35-.17l.85.05c.17 0 .3.11.28.22l-.64 3.64c.01.11-.15.18-.35.17z" fill="#407bff"/><path d="m160 243.18-.85-.05c-.17 0-.3-.11-.28-.22l.64-3.64c0-.11.17-.18.35-.17l.85.05c.17 0 .3.11.28.22l-.64 3.64c.01.11-.15.18-.35.17z" opacity=".3"/><path d="m175.68 203.31c1.2 4 2.34 8.05 3.45 12.09l3.35 12.09.42 1.5.11.37.05.19v.1a3.56 3.56 0 0 0 .13.39 6.41 6.41 0 0 0 1 1.68 16.69 16.69 0 0 0 4.1 3.16 52.87 52.87 0 0 0 11 4.44l-.58 3.9a41.59 41.59 0 0 1 -13.08-2.83 20.73 20.73 0 0 1 -6.29-3.88 12.46 12.46 0 0 1 -2.6-3.42 9.36 9.36 0 0 1 -.47-1.07l-.11-.27-.07-.19-.13-.37-.53-1.51c-1.4-4-2.7-8-3.93-12.06s-2.44-8.06-3.54-12.14z" fill="#e4897b"/><path d="m173.89 195.27c4 1.31 8.2 14.39 8.2 14.39l-14.44 6.22s-6-14.68-3.34-18 4.99-4.11 9.58-2.61z" fill="#407bff"/><path d="m173.89 195.27c4 1.31 8.2 14.39 8.2 14.39l-14.44 6.22s-6-14.68-3.34-18 4.99-4.11 9.58-2.61z" fill="#fafafa" opacity=".6"/><path d="m166.17 155.65c-2.55-3.15-22.25-5.4-23.3 3.18-7 4.9-.36 17.56.64 20.78-4.83 1.34-20.39 6.66-9 17s28.47 8.58 31.81-2.12c2.34-7.48-5.09-20-4.93-24.38s9.15-9.11 4.78-14.46z" fill="#263238"/><path d="m144.89 181.19a.23.23 0 0 1 -.19-.09c-1.81-2.2-8.11-13.76-5.9-19.26a4.79 4.79 0 0 1 4.23-3 .24.24 0 0 1 .27.22.25.25 0 0 1 -.21.28 4.32 4.32 0 0 0 -3.83 2.66c-2.13 5.32 4.05 16.61 5.82 18.77a.24.24 0 0 1 -.19.4z" fill="#263238"/><path d="m159.83 169.64a6.64 6.64 0 0 0 2 3.82c1.42 1.36 2.76.43 2.89-1.3.12-1.55-.48-4.12-2.16-4.84s-2.94.59-2.73 2.32z" fill="#e4897b"/><path d="m194.39 238.24 5.68-1.93-.89 6.83s-2.24 1-5.14-1.52l-2.77-1.77 2.18-1.19a5.28 5.28 0 0 1 .94-.42z" fill="#e4897b"/><path d="m204.04 236.29-1.74 5.97-3.12.87.89-6.82z" fill="#e4897b"/></svg>